<svg width="500" height="410" viewBox="0 0 500 410" fill="none" xmlns="http://www.w3.org/2000/svg">
<path fill-rule="evenodd" clip-rule="evenodd" d="M45.4545 0V363.636C113.636 363.636 250 372.727 250 409.091C250 372.727 386.364 363.636 454.545 363.636V0C386.364 0 250 9.09091 250 45.4545C250 9.09091 113.636 0 45.4545 0ZM250 68.1818L181.818 250H250V386.364L318.182 204.545H250V68.1818Z" fill="url(#paint0_radial_112_47)"/>
<path d="M0 409.091H227.273C227.273 390.909 90.9091 386.364 22.7273 386.364V45.4545H0V409.091Z" fill="url(#paint1_radial_112_47)"/>
<path d="M500 409.091H272.727C272.727 390.909 409.091 386.364 477.273 386.364V45.4545H500V409.091Z" fill="url(#paint2_radial_112_47)"/>
<defs>
<radialGradient id="paint0_radial_112_47" cx="0" cy="0" r="1" gradientUnits="userSpaceOnUse" gradientTransform="translate(250.57 2.11048e-05) rotate(90.0798) scale(409.091 500)">
<stop stop-color="#C37BFF"/>
<stop offset="1" stop-color="#5800C9"/>
</radialGradient>
<radialGradient id="paint1_radial_112_47" cx="0" cy="0" r="1" gradientUnits="userSpaceOnUse" gradientTransform="translate(250.57 2.11048e-05) rotate(90.0798) scale(409.091 500)">
<stop stop-color="#C37BFF"/>
<stop offset="1" stop-color="#5800C9"/>
</radialGradient>
<radialGradient id="paint2_radial_112_47" cx="0" cy="0" r="1" gradientUnits="userSpaceOnUse" gradientTransform="translate(250.57 2.11048e-05) rotate(90.0798) scale(409.091 500)">
<stop stop-color="#C37BFF"/>
<stop offset="1" stop-color="#5800C9"/>
</radialGradient>
</defs>
</svg>
