<svg width="500" height="400" viewBox="0 0 500 400" fill="none" xmlns="http://www.w3.org/2000/svg">
<path d="M25 50H0V400H225C225 380 91.6667 375 25 375V50Z" fill="url(#paint0_radial_92_20)"/>
<path d="M500 400H275C275 380 408.333 375 475 375V50H500V400Z" fill="url(#paint1_radial_92_20)"/>
<path d="M450 350V0C387.5 0 262.5 5 262.5 25V375C262.5 355 387.5 350 450 350Z" fill="url(#paint2_radial_92_20)"/>
<path d="M237.5 25C237.5 5 112.5 0 50 0V350C112.5 350 237.5 355 237.5 375V25Z" fill="url(#paint3_radial_92_20)"/>
<defs>
<radialGradient id="paint0_radial_92_20" cx="0" cy="0" r="1" gradientUnits="userSpaceOnUse" gradientTransform="translate(250.57 2.06358e-05) rotate(90.0816) scale(400 500)">
<stop stop-color="#C37BFF"/>
<stop offset="1" stop-color="#5800C9"/>
</radialGradient>
<radialGradient id="paint1_radial_92_20" cx="0" cy="0" r="1" gradientUnits="userSpaceOnUse" gradientTransform="translate(250.57 2.06358e-05) rotate(90.0816) scale(400 500)">
<stop stop-color="#C37BFF"/>
<stop offset="1" stop-color="#5800C9"/>
</radialGradient>
<radialGradient id="paint2_radial_92_20" cx="0" cy="0" r="1" gradientUnits="userSpaceOnUse" gradientTransform="translate(250.57 2.06358e-05) rotate(90.0816) scale(400 500)">
<stop stop-color="#C37BFF"/>
<stop offset="1" stop-color="#5800C9"/>
</radialGradient>
<radialGradient id="paint3_radial_92_20" cx="0" cy="0" r="1" gradientUnits="userSpaceOnUse" gradientTransform="translate(250.57 2.06358e-05) rotate(90.0816) scale(400 500)">
<stop stop-color="#C37BFF"/>
<stop offset="1" stop-color="#5800C9"/>
</radialGradient>
</defs>
</svg>
